# .PCD v0.7
VERSION 0.7
FIELDS x y z
SIZE 4 4 4
TYPE F F F
COUNT 1 1 1
WIDTH 2500
HEIGHT 1
VIEWPOINT 0 0 0 1 0 0 0
POINTS 2500
DATA ascii
-0.000288 -0.000346 -0.000223
0.001404 0.499745 -0.002995
0.000665 -0.000535 -0.000434
0.500232 0.000465 0.002327
0.022147 0.000221 -0.001477
0.018804 0.500493 0.002622
0.000083 0.020621 0.001064
0.497093 0.020209 0.000981
0.043413 -0.000481 0.000753
0.042163 0.501565 -0.002226
0.001137 0.038638 -0.005240
0.498786 0.039835 0.001752
0.063829 -0.002438 0.001695
0.060496 0.499828 -0.000588
0.000229 0.064137 0.001277
0.500700 0.063800 0.000957
0.082079 -0.001435 -0.000940
0.084332 0.499500 0.004672
-0.001639 0.081136 0.001537
0.502844 0.084345 0.001672
0.107019 -0.000188 -0.002846
0.103103 0.501906 -0.002887
0.000067 0.104673 -0.000631
0.501447 0.105328 0.004643
0.126240 -0.001219 -0.001124
0.123337 0.501905 -0.001134
-0.000141 0.126499 -0.001447
0.499413 0.121317 -0.002165
0.144698 0.000832 0.002387
0.145796 0.500523 0.000336
0.002169 0.147620 0.000547
0.497978 0.147640 0.000762
0.169121 -0.000060 0.003906
0.165949 0.503186 0.000230
-0.001033 0.164410 -0.000302
0.502847 0.168299 0.001378
0.182748 0.001422 0.001112
0.186400 0.498745 -0.000005
0.003450 0.185390 -0.000856
0.502724 0.186608 -0.000729
0.208529 -0.002483 0.000440
0.205914 0.501770 0.000006
0.004567 0.208895 0.002731
0.497393 0.208089 0.000646
0.232658 -0.003362 0.001981
0.230349 0.503067 0.001425
0.000104 0.228123 -0.002496
0.500391 0.228783 0.004041
0.248778 0.000641 -0.003138
0.249209 0.500522 0.001648
0.002896 0.249912 -0.002234
0.500916 0.251034 0.000983
0.269433 0.002267 0.000176
0.272233 0.502548 0.001219
0.000573 0.275139 0.000487
0.499408 0.271057 0.002966
0.291904 0.001039 0.002391
0.290641 0.496547 0.000599
0.000459 0.290451 0.001742
0.501215 0.289677 0.001036
0.312108 -0.002966 0.000906
0.312410 0.498509 0.001046
0.000976 0.311345 0.000801
0.502030 0.311075 0.000762
0.333339 0.004532 -0.003725
0.334724 0.499388 -0.000200
0.003803 0.333316 0.004482
0.499116 0.334034 -0.000982
0.352785 0.000125 -0.000565
0.354572 0.495790 0.004005
-0.000334 0.357652 -0.002014
0.500585 0.360497 -0.001739
0.372009 -0.001093 0.000945
0.376387 0.502581 -0.000514
-0.003205 0.374130 0.002480
0.500931 0.371086 -0.000070
0.398630 0.004253 0.001123
0.396452 0.497520 -0.001686
0.000094 0.396840 0.001160
0.499044 0.393529 -0.001556
0.414353 0.001287 -0.004625
0.416000 0.500900 0.003044
0.000143 0.418669 -0.000798
0.498511 0.415318 0.003055
0.439488 0.000975 0.006661
0.437435 0.501241 0.000615
-0.000444 0.442132 0.003013
0.497201 0.436700 0.000857
0.459900 -0.002697 -0.004511
0.454521 0.499858 -0.000206
0.000690 0.456794 -0.002448
0.495954 0.458992 0.000740
0.481153 0.001582 -0.000381
0.481865 0.499727 -0.001322
-0.001041 0.477997 -0.004331
0.500313 0.479666 -0.000725
0.498572 0.000744 0.003434
0.500077 0.498985 -0.001183
-0.000140 0.497470 -0.000251
0.500122 0.503689 0.001887
0.252068 0.248574 0.001340
0.256055 0.250624 0.000837
0.265134 0.253999 0.001135
0.271195 0.251106 -0.000815
0.283336 0.250932 0.000781
0.287588 0.247683 0.001545
0.302602 0.253806 0.003606
0.304222 0.251539 -0.003833
0.319894 0.250507 -0.002282
0.329020 0.251288 -0.003782
0.333920 0.248538 0.000223
0.340736 0.252747 -0.002847
0.350635 0.253628 -0.001654
0.358755 0.250404 -0.001379
0.367962 0.250194 -0.001888
0.378524 0.251583 -0.000334
0.382060 0.248431 0.002462
0.391374 0.250919 -0.000369
0.401233 0.249768 0.001528
0.407967 0.251659 0.001345
0.416433 0.248280 -0.001880
0.423519 0.248031 0.001732
0.433240 0.253140 0.004559
0.441715 0.246904 -0.000763
0.449849 0.247023 -0.000501
0.000574 -0.000919 -0.001537
-0.001518 0.503573 -0.000319
-0.001660 -0.000746 0.001909
0.498631 0.000964 0.001456
0.022332 0.002799 -0.001101
0.023099 0.498414 -0.000793
0.002392 0.022478 0.000004
0.497617 0.021957 -0.001261
0.039819 -0.001296 0.000493
0.037425 0.500722 0.000348
-0.001169 0.043741 0.001223
0.498787 0.040327 0.001390
0.059468 -0.000665 -0.001262
0.062640 0.500422 0.000074
0.002270 0.062956 -0.000630
0.497578 0.063944 0.001056
0.086235 -0.001495 0.000053
0.083216 0.499825 0.000021
-0.003429 0.084983 0.001306
0.502261 0.087832 -0.000638
0.104094 0.000020 0.003884
0.100704 0.500972 -0.002942
-0.005163 0.100125 -0.002764
0.502138 0.102430 -0.000455
0.122673 0.001222 -0.002204
0.127635 0.498014 -0.001530
0.000245 0.125049 0.002849
0.500241 0.122584 -0.001121
0.144688 0.001450 0.000768
0.145595 0.501739 -0.001057
-0.000272 0.146195 0.003056
0.499803 0.145132 -0.002092
0.168039 -0.001175 0.000687
0.162863 0.502086 -0.002664
-0.001555 0.168784 -0.002669
0.499841 0.166815 -0.001997
0.190186 0.002998 -0.003943
0.184602 0.501616 -0.002606
-0.000777 0.187759 0.001384
0.499554 0.187690 -0.001553
0.210918 -0.000991 0.000679
0.207310 0.500213 -0.000336
-0.000325 0.206306 0.001593
0.502828 0.208820 0.001465
0.230843 0.001856 0.000607
0.229591 0.501728 0.000138
-0.001948 0.229214 -0.003777
0.499988 0.229993 0.002472
0.250303 0.001856 -0.000001
0.247953 0.497177 -0.001939
-0.002732 0.251267 -0.000415
0.501141 0.250147 0.002088
0.272954 -0.001291 -0.000549
0.269768 0.496757 0.001350
0.002378 0.270820 -0.000986
0.502182 0.266143 0.000355
0.291953 -0.001142 0.002783
0.293608 0.499478 -0.000173
-0.000776 0.290642 -0.002616
0.502760 0.293723 0.001596
0.310311 0.004162 0.003960
0.312876 0.498192 -0.001733
0.000837 0.310674 -0.000068
0.502177 0.309486 0.004011
0.336467 -0.002474 -0.002827
0.332767 0.497938 -0.000527
-0.005162 0.332876 0.003606
0.497767 0.332787 -0.002979
0.355443 -0.000451 0.003881
0.354580 0.499256 0.001101
-0.001012 0.351488 0.000604
0.499650 0.354499 0.000751
0.373979 0.000843 0.003475
0.372784 0.503475 -0.000486
-0.001533 0.379854 0.000310
0.502741 0.376635 -0.003361
0.396075 -0.001051 -0.002684
0.392290 0.500205 0.001181
0.000781 0.395222 -0.001597
0.498026 0.394723 -0.002066
0.416260 -0.000046 -0.001792
0.416203 0.498479 -0.000009
0.001014 0.417023 0.000944
0.496696 0.415909 0.000553
0.438782 -0.003196 0.000318
0.439913 0.499643 -0.000190
0.000901 0.437994 0.001349
0.500145 0.437805 -0.001565
0.457992 0.002506 -0.000408
0.457996 0.499017 0.001574
-0.001709 0.460154 -0.001874
0.497884 0.458745 0.000260
0.479762 0.002125 -0.000825
0.480053 0.498180 0.002518
0.001265 0.480240 0.000376
0.498429 0.478512 0.001004
0.499962 0.000247 -0.002720
0.500362 0.498616 -0.002167
-0.000309 0.496287 0.001397
0.501704 0.499893 -0.001988
0.248109 0.249698 -0.004847
0.258694 0.251329 -0.000624
0.265678 0.250364 0.000701
0.277188 0.250037 -0.001380
0.282411 0.250364 0.003112
0.291026 0.247895 -0.001740
0.295807 0.250660 -0.002723
0.305866 0.246048 -0.002236
0.317804 0.247377 -0.003499
0.325357 0.249318 0.000864
0.334814 0.249983 -0.002596
0.341419 0.251001 -0.001166
0.347125 0.252205 -0.000830
0.357515 0.250032 0.002061
0.367194 0.249334 0.001364
0.379294 0.252776 0.001346
0.381089 0.257504 -0.002397
0.390923 0.248600 0.003254
0.400840 0.247146 0.000535
0.409427 0.249363 -0.002440
0.415217 0.249126 0.000045
0.423960 0.251470 -0.001900
0.429871 0.248521 0.002698
0.440520 0.254682 0.000983
0.447671 0.248331 0.000487
-0.002355 0.004749 -0.001982
0.001362 0.502920 -0.000218
-0.001992 -0.000546 0.000724
0.501751 0.000113 -0.002800
0.020918 -0.001347 -0.004366
0.019438 0.497135 0.001174
0.003888 0.024551 -0.001146
0.499065 0.022211 0.002123
0.040829 -0.000285 0.004414
0.041452 0.499029 0.000240
0.001159 0.039623 -0.000497
0.497667 0.041110 0.003754
0.063983 -0.000185 -0.001866
0.061877 0.502101 -0.001123
0.002901 0.059753 -0.000580
0.503486 0.058484 0.002377
0.079631 -0.000180 -0.000345
0.084982 0.493691 -0.003836
-0.001132 0.083407 -0.001786
0.499558 0.080961 -0.000803
0.102473 0.000488 0.001163
0.107033 0.498687 -0.000636
0.000095 0.103577 -0.000104
0.496876 0.104910 -0.001830
0.123086 -0.003176 0.002322
0.124719 0.502299 0.000545
-0.003407 0.122833 0.001516
0.498469 0.122819 -0.000359
0.145479 -0.002024 -0.000652
0.144876 0.494820 0.001005
-0.001623 0.148442 -0.002300
0.496841 0.148209 -0.003170
0.165394 0.001195 -0.000659
0.163356 0.500376 -0.000389
0.002568 0.167844 0.006071
0.496708 0.166623 -0.002133
0.189810 0.001644 0.001508
0.185945 0.498510 -0.004059
0.003419 0.188516 -0.000522
0.501867 0.189002 0.001951
0.205086 -0.001428 0.000391
0.209044 0.501914 -0.002017
0.000254 0.212744 0.001384
0.501741 0.208295 0.001535
0.232775 0.000213 0.002448
0.227416 0.501180 0.001808
-0.001504 0.231363 -0.001350
0.498390 0.229164 0.003864
0.250618 0.001872 -0.001464
0.250155 0.497647 -0.001142
0.001671 0.249923 0.002903
0.499595 0.249604 0.002553
0.269536 -0.003040 0.002603
0.271662 0.495670 0.000089
-0.000808 0.274323 -0.001458
0.498838 0.269013 -0.002108
0.290266 -0.002872 -0.002062
0.288453 0.497005 -0.003119
-0.001042 0.290299 -0.002453
0.500957 0.291571 -0.000864
0.311572 0.003186 0.000480
0.313451 0.494828 -0.001307
-0.004342 0.311648 0.000747
0.498651 0.313537 -0.002045
0.334485 -0.003107 -0.000523
0.334173 0.501072 -0.000255
0.003879 0.332504 -0.000902
0.494481 0.336871 -0.000738
0.351815 0.002642 0.002471
0.354383 0.497130 0.000838
-0.001243 0.351825 0.002087
0.495735 0.355301 0.000919
0.379102 0.000650 -0.004117
0.373328 0.500129 0.000711
0.001962 0.371081 -0.000660
0.501940 0.378088 0.003722
0.395053 0.002195 0.003423
0.398229 0.501447 0.001656
-0.001580 0.392939 0.001966
0.499306 0.395777 -0.001157
0.415881 0.000465 -0.002044
0.416804 0.500492 -0.000155
-0.001487 0.418240 0.003745
0.498798 0.419136 0.001779
0.432193 -0.001522 -0.001272
0.439064 0.500377 0.000949
0.001273 0.435702 -0.001493
0.497554 0.437159 -0.000238
0.458676 -0.001455 0.001813
0.460168 0.503093 0.001423
0.000371 0.459678 0.001220
0.498696 0.460912 0.003437
0.483121 0.000070 0.000649
0.479999 0.499995 0.001239
-0.000242 0.478779 0.003518
0.500329 0.479301 0.001764
0.500301 0.000583 -0.000127
0.497559 0.499938 -0.002274
0.000420 0.497637 0.001833
0.501498 0.500561 -0.000200
0.250833 0.246070 -0.002194
0.258036 0.250691 -0.000159
0.264657 0.250267 -0.000907
0.272863 0.250659 -0.000420
0.285726 0.251331 0.001469
0.292310 0.248310 -0.001871
0.297058 0.255758 -0.002159
0.307914 0.249279 -0.000562
0.315499 0.246263 -0.001996
0.322219 0.249746 -0.001368
0.331959 0.250432 -0.001166
0.343531 0.249228 0.000450
0.347349 0.251314 -0.000810
0.359151 0.250660 -0.000347
0.367102 0.249229 0.002692
0.376869 0.250965 -0.002360
0.381135 0.248672 -0.000490
0.392563 0.248207 0.002354
0.400007 0.245974 -0.000951
0.403163 0.248497 -0.001098
0.415446 0.249349 -0.000788
0.423813 0.253005 0.002430
0.431050 0.252508 -0.003243
0.440037 0.253050 -0.004479
0.451150 0.247493 -0.000288
-0.000360 0.003394 -0.001621
-0.000138 0.501254 -0.000504
-0.001644 -0.000118 0.000187
0.501768 -0.001886 -0.000898
0.021479 -0.000334 -0.000371
0.020799 0.498608 -0.001599
0.000881 0.018643 0.002331
0.500435 0.018280 0.000566
0.042001 0.001524 0.002318
0.040934 0.498584 -0.001212
-0.001962 0.040174 0.000569
0.500031 0.040684 -0.001477
0.063196 -0.001003 -0.002080
0.062197 0.499471 -0.002140
0.001654 0.064192 0.000082
0.500262 0.063555 -0.000062
0.085116 0.003312 0.000161
0.084214 0.501747 -0.000676
-0.002257 0.085145 -0.003138
0.503578 0.085074 0.000375
0.104269 0.003503 -0.001892
0.101846 0.498804 -0.000524
-0.002013 0.104474 0.000272
0.498372 0.107373 -0.002784
0.122447 0.000752 -0.000415
0.125835 0.498762 -0.002067
-0.001291 0.123633 0.001050
0.499040 0.126523 0.001176
0.147915 0.001801 0.001569
0.147373 0.498967 -0.000524
-0.003660 0.146417 -0.001348
0.500803 0.146888 -0.002704
0.164639 -0.000699 -0.001035
0.167001 0.497689 0.000094
-0.003377 0.162356 0.001433
0.497389 0.165547 -0.002835
0.184682 -0.000798 -0.000820
0.189465 0.500899 -0.000522
0.001515 0.189733 0.000823
0.499187 0.189537 0.003537
0.209654 0.003541 0.001853
0.210031 0.497820 -0.002227
-0.000099 0.204994 -0.001186
0.501735 0.207003 0.001066
0.226464 -0.000987 0.002047
0.229584 0.500581 0.003409
0.002594 0.227413 0.002636
0.498770 0.229131 0.000030
0.252146 -0.002259 0.000904
0.251048 0.501623 -0.000421
0.002007 0.248577 0.002294
0.500704 0.247200 0.000816
0.271192 -0.000711 -0.001473
0.270353 0.497116 0.003381
-0.002257 0.269511 0.002290
0.501170 0.272274 0.003033
0.291042 -0.002093 0.001689
0.293259 0.499346 -0.002531
0.002478 0.292818 -0.002747
0.501560 0.288785 -0.000965
0.310253 -0.001276 -0.001667
0.311273 0.501449 0.000589
0.001257 0.314685 -0.000745
0.500160 0.313576 0.003413
0.335131 0.002763 0.002038
0.335448 0.496431 0.001762
0.000426 0.333442 -0.001055
0.499149 0.334166 0.001680
0.351171 0.000436 -0.001121
0.352265 0.500785 -0.000657
-0.001318 0.352628 0.000563
0.499980 0.351983 -0.001682
0.374635 0.000810 -0.002099
0.375976 0.498352 0.005455
-0.001882 0.373420 0.000388
0.498195 0.376655 0.003603
0.395058 0.000346 -0.001036
0.395833 0.502863 0.001788
-0.001808 0.398925 0.002324
0.500973 0.394515 0.000131
0.415076 0.000935 -0.000633
0.412197 0.501852 0.000383
0.002157 0.416394 0.000377
0.502231 0.417442 0.000576
0.443929 -0.000338 0.000338
0.440968 0.498390 -0.002082
-0.002864 0.438567 0.001251
0.501483 0.434793 0.002012
0.460728 -0.000195 0.000065
0.459685 0.500734 0.001284
-0.002172 0.457984 -0.002425
0.501263 0.459394 -0.000198
0.479760 -0.003113 0.001716
0.478232 0.500258 0.002231
-0.001513 0.481561 0.000248
0.500056 0.480279 -0.002494
0.501188 0.000123 0.002073
0.499566 0.499273 0.000739
-0.000119 0.497652 -0.000388
0.502535 0.499814 -0.001741
0.251432 0.246293 -0.004241
0.258325 0.250362 0.000441
0.264881 0.249699 -0.002797
0.275439 0.246769 -0.000298
0.283856 0.246487 -0.001045
0.293243 0.253098 -0.003008
0.300680 0.247528 -0.002691
0.311525 0.251336 -0.001608
0.317105 0.251284 0.000363
0.329495 0.251212 -0.005986
0.332753 0.248527 -0.000408
0.341694 0.248698 -0.002170
0.352727 0.251195 -0.001341
0.359693 0.251350 0.002535
0.364556 0.251560 -0.001216
0.377310 0.249615 -0.004544
0.383404 0.246432 -0.000434
0.391550 0.249197 -0.002974
0.397769 0.248311 -0.000496
0.410910 0.251418 -0.000944
0.419214 0.247264 0.001370
0.424650 0.250473 0.001277
0.431974 0.251602 -0.000019
0.446490 0.249391 0.002538
0.451294 0.247652 0.002721
-0.002121 -0.004464 0.001707
0.002138 0.500104 -0.000522
0.003167 0.001424 -0.001312
0.501463 -0.002487 -0.001118
0.018731 -0.004400 -0.002355
0.023278 0.497804 -0.001100
-0.002322 0.022565 0.000002
0.500982 0.020622 -0.002342
0.039719 0.001675 -0.000115
0.043215 0.493675 0.002220
-0.000988 0.046012 -0.001022
0.500057 0.042987 -0.001752
0.064245 -0.001290 0.002578
0.064086 0.500991 -0.001448
-0.000421 0.063100 -0.004067
0.498897 0.064376 -0.002536
0.085891 -0.001257 0.000647
0.081038 0.500969 0.000925
0.002273 0.086041 0.002507
0.500418 0.080881 0.002648
0.101558 -0.000877 0.001474
0.105054 0.503186 -0.000008
-0.003380 0.103616 0.000348
0.499299 0.106992 -0.000495
0.122128 0.000934 -0.002295
0.128400 0.500540 -0.002807
0.002159 0.129738 -0.004008
0.501806 0.125968 0.000351
0.146520 0.000984 -0.001386
0.148655 0.497301 0.003917
0.003055 0.143461 -0.000011
0.502840 0.144851 -0.000325
0.165862 0.002335 -0.001215
0.166647 0.501080 -0.000415
-0.001733 0.163984 -0.003037
0.497640 0.163226 -0.001454
0.188100 0.000108 -0.001653
0.185464 0.498013 -0.002776
-0.002472 0.188929 -0.002809
0.500035 0.186264 0.004856
0.204739 0.000387 -0.000668
0.206791 0.500630 0.000311
-0.002138 0.209186 0.000778
0.502619 0.207113 0.002941
0.228773 -0.003952 0.001046
0.229003 0.498235 0.001866
-0.000943 0.231200 -0.000165
0.501501 0.230526 0.000946
0.247936 0.001839 0.000044
0.254005 0.500957 0.001502
-0.001530 0.249188 0.000193
0.497659 0.247659 -0.000217
0.270678 0.000404 0.002234
0.270033 0.501362 -0.000289
-0.000388 0.271347 -0.004135
0.500133 0.269557 -0.001860
0.287893 -0.000886 -0.003755
0.293407 0.499521 -0.003364
-0.001347 0.293177 -0.001190
0.499438 0.290928 -0.000257
0.309100 -0.000091 -0.001116
0.318408 0.499574 -0.000911
0.001977 0.312188 0.000507
0.498252 0.315610 -0.001255
0.334084 0.002265 -0.000609
0.333333 0.501173 0.001365
-0.002180 0.333696 -0.001891
0.498509 0.332037 0.002432
0.357360 0.005211 -0.000113
0.352484 0.498061 0.003215
-0.003077 0.353533 -0.001132
0.503500 0.352140 0.002203
0.377627 -0.000334 0.000931
0.371923 0.499824 -0.000430
-0.005159 0.375831 0.000710
0.496613 0.372175 -0.001499
0.394775 -0.000613 -0.001916
0.393818 0.500613 -0.000950
-0.000214 0.395374 0.000914
0.499691 0.397556 0.000206
0.418445 0.002494 -0.002921
0.418511 0.503566 -0.001945
-0.000064 0.415952 0.000882
0.501040 0.415328 0.002625
0.435787 -0.000277 0.002047
0.441407 0.498975 0.001565
0.000440 0.434335 -0.001910
0.497590 0.436493 -0.000834
0.458389 0.002555 0.000845
0.463639 0.499513 0.001579
0.000829 0.461346 -0.000757
0.501691 0.461591 -0.001442
0.479017 0.001009 -0.000870
0.477416 0.503665 -0.000459
0.003468 0.478150 -0.000414
0.501594 0.478755 -0.001798
0.498560 0.000545 -0.001332
0.500176 0.495485 -0.001116
-0.000361 0.498975 -0.001987
0.498233 0.500141 0.002974
0.247203 0.249447 0.001954
0.259002 0.249812 -0.000901
0.266693 0.249798 -0.004373
0.273568 0.246101 0.002582
0.284979 0.248424 0.001610
0.296564 0.248754 0.002599
0.300725 0.249527 -0.002212
0.307221 0.249210 -0.004632
0.317728 0.249357 0.000918
0.324162 0.255997 -0.003315
0.331467 0.251410 0.004717
0.339682 0.253658 -0.001834
0.352587 0.250151 0.004460
0.361897 0.248705 0.005871
0.364418 0.249373 0.003616
0.373530 0.248717 0.000261
0.384238 0.250774 -0.001491
0.392060 0.251275 0.003008
0.400656 0.247494 0.000057
0.407092 0.252638 -0.003351
0.417786 0.247869 0.002544
0.426542 0.250439 0.001010
0.432660 0.251352 -0.000099
0.443129 0.250117 -0.004962
0.448973 0.253035 0.002905
0.000209 -0.000252 -0.000670
0.001261 0.501158 -0.001958
0.001323 0.002466 -0.001910
0.499626 0.000927 0.001446
0.019992 -0.001057 -0.000928
0.021604 0.500858 -0.000039
-0.002728 0.018653 0.001274
0.497558 0.021286 -0.000722
0.040462 0.000053 0.003353
0.042244 0.499409 -0.002947
0.001024 0.043940 0.001215
0.502332 0.042620 -0.002607
0.062410 0.001050 0.001442
0.061514 0.499873 0.000732
0.002543 0.064510 0.001293
0.500792 0.060449 -0.002202
0.083150 0.002083 0.000791
0.084456 0.496997 -0.002923
0.002240 0.083264 -0.002627
0.501764 0.083849 0.005903
0.106667 0.000693 -0.000302
0.104631 0.499795 -0.002878
0.001855 0.104716 -0.005509
0.498729 0.102509 0.001962
0.124912 0.002975 -0.003183
0.122848 0.502134 -0.001310
-0.002117 0.123947 -0.001520
0.501079 0.127236 -0.003174
0.145252 0.000028 0.000164
0.147500 0.500240 -0.001160
-0.002224 0.142184 -0.000742
0.500029 0.147677 -0.000756
0.171314 -0.000153 -0.000967
0.167428 0.498059 0.000418
-0.004128 0.168019 0.000133
0.500421 0.166976 -0.002548
0.185703 0.003133 0.000989
0.186305 0.500842 0.000815
0.003909 0.189721 0.000822
0.499102 0.191067 -0.000203
0.206592 -0.002440 -0.001725
0.207605 0.501531 0.001826
0.002302 0.208639 0.001663
0.504519 0.210154 0.003206
0.226145 -0.001484 -0.001502
0.223813 0.500147 0.002785
-0.001071 0.229558 -0.001708
0.499017 0.229737 -0.002392
0.252348 -0.003838 0.000644
0.249017 0.502978 0.001524
-0.004168 0.245155 -0.002003
0.498996 0.249622 0.000060
0.272181 -0.002732 -0.003601
0.271338 0.499278 -0.000207
-0.001284 0.270487 0.002973
0.496753 0.268382 0.001283
0.294801 -0.000411 -0.002525
0.287664 0.500521 -0.002499
0.004351 0.296350 0.000453
0.500971 0.291431 0.002284
0.312494 0.000127 0.002721
0.313752 0.504262 -0.003274
-0.001111 0.310692 0.001684
0.499013 0.313705 -0.002338
0.333145 0.004594 0.003277
0.329576 0.500729 0.001653
-0.000987 0.331129 0.001324
0.500202 0.334438 -0.000316
0.358829 -0.001828 -0.000992
0.355196 0.501463 -0.002757
0.002595 0.351250 0.000013
0.499386 0.352751 0.002267
0.370306 -0.001462 -0.001806
0.376750 0.503101 0.001551
0.002791 0.370551 0.000327
0.497234 0.374250 0.000489
0.396023 0.002752 -0.003957
0.394162 0.497039 -0.003278
0.002012 0.396198 0.003113
0.502370 0.395970 -0.001939
0.418650 -0.001383 -0.002399
0.414366 0.500244 0.002531
0.000105 0.419116 0.000183
0.499147 0.422109 0.003642
0.437894 -0.001664 -0.003218
0.438303 0.499489 0.000934
0.000646 0.438373 0.002284
0.500628 0.436053 -0.001541
0.459500 -0.002144 0.001437
0.459762 0.499912 -0.001563
-0.003553 0.456085 -0.003252
0.500053 0.457449 -0.001841
0.480912 0.000259 0.000095
0.480283 0.502073 -0.003206
0.001413 0.475549 -0.001589
0.502024 0.480549 0.001329
0.500364 0.002826 -0.003082
0.499390 0.500095 0.004071
0.002053 0.502077 -0.001523
0.504499 0.500944 -0.002012
0.254691 0.247146 -0.001737
0.257865 0.248039 0.001054
0.267220 0.250227 0.003788
0.271732 0.252733 -0.001649
0.286258 0.253810 0.004603
0.291286 0.247673 0.000656
0.299893 0.246474 0.001471
0.306488 0.252884 0.001930
0.316104 0.250072 -0.000485
0.324085 0.256197 -0.001872
0.333444 0.251983 -0.000769
0.340410 0.247342 0.002384
0.351424 0.250940 -0.003018
0.359340 0.250571 -0.000676
0.363913 0.249887 -0.001742
0.375160 0.250127 -0.000676
0.385097 0.249868 0.001058
0.392503 0.252016 -0.001928
0.399309 0.251844 0.000307
0.410585 0.251490 -0.000889
0.418428 0.249485 0.001913
0.428708 0.252183 0.004579
0.430230 0.248903 -0.000533
0.440866 0.250745 -0.000736
0.452212 0.251970 0.000827
-0.002024 0.001095 0.001349
0.000708 0.500060 0.002801
-0.001097 -0.000733 0.001334
0.501062 0.001705 -0.000568
0.018204 -0.002475 -0.000865
0.022418 0.501585 -0.003632
0.001068 0.020659 -0.002084
0.504382 0.021361 0.001655
0.046802 -0.001162 -0.000794
0.044645 0.497385 0.000148
0.000092 0.043607 0.000811
0.498174 0.043611 0.001690
0.060398 -0.001376 -0.001052
0.060201 0.502129 -0.000648
-0.000556 0.060424 -0.000789
0.502970 0.063997 -0.003235
0.081354 0.001271 -0.000996
0.082227 0.498279 -0.002662
0.000191 0.082573 0.002281
0.499867 0.081403 0.001388
0.106859 -0.001471 -0.003405
0.103209 0.497300 0.003283
-0.002775 0.103511 0.002947
0.501742 0.103139 -0.001566
0.124637 -0.000480 0.002993
0.124691 0.497300 0.001972
0.002073 0.124546 0.001544
0.500103 0.122586 -0.000162
0.143544 -0.001268 -0.001878
0.146499 0.500373 -0.002639
-0.001840 0.145828 0.000929
0.500144 0.141420 0.002574
0.170211 0.003168 0.001088
0.168011 0.498692 0.000377
-0.002261 0.166910 -0.002859
0.501170 0.165958 0.001534
0.187865 -0.000919 0.001687
0.185153 0.499470 -0.001075
0.001488 0.187349 0.000540
0.501051 0.182808 -0.001853
0.208565 0.002025 0.001145
0.210955 0.499557 0.000201
-0.001000 0.207462 -0.001661
0.498913 0.207952 -0.001303
0.229220 -0.003637 0.000856
0.229522 0.500892 -0.000927
-0.001016 0.231131 -0.000309
0.503973 0.226354 -0.000495
0.247745 -0.001573 -0.001580
0.249039 0.501566 -0.002288
0.001220 0.247118 -0.000811
0.502640 0.250924 0.000545
0.272094 0.001152 0.001256
0.273641 0.497923 -0.000141
0.001275 0.272333 0.001116
0.502613 0.269831 -0.002699
0.294211 -0.000002 -0.001097
0.291738 0.499135 0.002012
0.001780 0.292290 0.001082
0.500065 0.293720 -0.004727
0.310164 -0.000080 -0.000827
0.310599 0.501240 -0.001957
0.000435 0.312749 0.000115
0.498342 0.312114 0.002454
0.334420 0.001926 -0.000160
0.329929 0.499067 -0.000301
0.002603 0.335605 0.000850
0.498287 0.333590 -0.000523
0.353680 -0.002467 0.000928
0.354107 0.501609 -0.002923
-0.002254 0.361459 -0.001760
0.500575 0.355042 -0.001964
0.378455 -0.000131 0.000299
0.378637 0.498418 -0.000975
-0.000691 0.372255 0.000552
0.500946 0.375367 0.001312
0.397565 0.000677 -0.000483
0.398274 0.498607 0.002793
-0.000386 0.397363 0.003653
0.495470 0.395449 -0.000808
0.420081 -0.000814 0.005458
0.413611 0.500699 -0.000773
0.001010 0.415536 -0.000902
0.496354 0.416883 -0.002996
0.434881 0.000174 -0.000243
0.439554 0.497294 0.000842
0.000645 0.436895 -0.001607
0.499842 0.439268 -0.000748
0.460028 -0.000548 0.003450
0.458387 0.499649 -0.003222
-0.002854 0.459096 -0.000455
0.500563 0.456964 -0.000301
0.477919 0.000590 -0.000436
0.482896 0.498624 0.002238
-0.002109 0.478236 -0.001683
0.502519 0.480041 0.000274
0.500469 -0.002169 0.002806
0.502779 0.499931 0.000027
0.001298 0.499649 -0.000400
0.499014 0.499308 -0.000952
0.251460 0.249343 -0.000857
0.257080 0.247001 0.003120
0.267684 0.251733 -0.001060
0.277914 0.250290 0.002905
0.283307 0.249911 -0.001056
0.291822 0.250450 0.002985
0.303079 0.250180 0.002438
0.302898 0.249059 0.000499
0.318441 0.250846 -0.000112
0.324077 0.248400 0.003804
0.335578 0.252616 0.000021
0.340598 0.251109 -0.000049
0.349744 0.249950 -0.001266
0.356591 0.249515 -0.002771
0.367863 0.251677 -0.001539
0.371345 0.250787 0.000477
0.383374 0.247331 -0.003835
0.395090 0.249567 0.001009
0.399859 0.250827 -0.002557
0.407442 0.247289 -0.002174
0.415249 0.246387 -0.000922
0.423578 0.247628 -0.000266
0.433311 0.248326 0.004024
0.443103 0.252243 -0.000657
0.451787 0.251531 -0.002037
-0.001364 0.005830 -0.000822
0.000974 0.499571 0.001663
-0.001989 -0.002011 0.002269
0.500397 -0.004955 0.000047
0.020469 0.001421 0.000642
0.021518 0.500175 0.000581
-0.002305 0.019204 -0.001705
0.497318 0.022410 0.002155
0.042895 -0.001202 -0.001074
0.040787 0.502226 0.001053
0.003478 0.039728 -0.000451
0.497479 0.038832 -0.000311
0.061829 -0.001026 -0.003069
0.062894 0.499432 0.001830
0.001101 0.059877 0.000791
0.498802 0.065565 -0.000059
0.082326 -0.000813 -0.003002
0.085882 0.504239 -0.003460
-0.000504 0.083113 -0.001189
0.502435 0.085828 -0.000491
0.108309 0.000066 -0.000484
0.104726 0.498508 0.002906
0.001233 0.103457 -0.000371
0.498184 0.104692 -0.002587
0.125006 -0.001034 0.001134
0.127085 0.501574 -0.000245
-0.001419 0.124401 -0.000033
0.500976 0.123864 -0.001935
0.146180 0.002718 0.003745
0.147420 0.498019 0.002817
-0.001691 0.144292 0.000855
0.497239 0.147437 -0.000107
0.167465 -0.001647 0.001693
0.167693 0.499273 0.001891
-0.005321 0.167391 -0.000215
0.498410 0.167021 0.001000
0.186026 -0.000239 -0.000083
0.188286 0.502454 -0.000928
0.002634 0.184892 0.000602
0.496561 0.187644 0.001445
0.212379 0.000099 -0.001497
0.210386 0.500082 0.000197
0.001834 0.210519 -0.003464
0.500103 0.208301 -0.002139
0.225919 -0.000134 -0.000927
0.227717 0.499725 -0.000702
0.000035 0.232320 -0.000060
0.503761 0.231655 0.001935
0.248543 -0.000587 -0.001839
0.250832 0.499866 0.000883
0.000605 0.250336 -0.000714
0.498054 0.249117 0.001433
0.270506 -0.000120 0.001736
0.271808 0.497050 -0.000161
-0.001743 0.270725 0.000781
0.501019 0.274161 -0.001002
0.291077 0.001148 0.001924
0.289604 0.501373 0.001331
-0.000301 0.291104 0.001465
0.500854 0.292468 -0.001464
0.309055 -0.000188 -0.000542
0.313416 0.498471 0.001269
0.000819 0.311020 0.001890
0.499314 0.311107 0.000502
0.333304 -0.001810 0.001240
0.333315 0.498484 -0.003508
0.000853 0.333531 0.000239
0.502754 0.328352 0.002538
0.356894 -0.001960 0.002029
0.352543 0.497915 -0.000203
0.003655 0.354890 0.000100
0.501771 0.352922 0.002995
0.378141 0.000858 -0.001577
0.377144 0.500589 0.001287
0.002273 0.375873 -0.001805
0.502981 0.375559 0.000648
0.397064 0.000623 0.001496
0.396228 0.499645 -0.001100
-0.001023 0.395257 0.001979
0.499326 0.395611 -0.000202
0.417734 0.001298 0.003949
0.413881 0.499544 0.001146
-0.003370 0.420149 -0.000232
0.498412 0.418608 -0.004396
0.437924 -0.001983 -0.000030
0.438248 0.501585 0.000823
0.004173 0.437624 -0.000684
0.502452 0.437369 0.000836
0.450459 0.000906 -0.000150
0.457464 0.498687 0.001806
-0.004083 0.464632 0.002308
0.500740 0.462134 0.000549
0.477377 0.002054 -0.003272
0.480367 0.502396 0.001070
-0.002902 0.479577 -0.000246
0.498516 0.474543 -0.002371
0.498999 0.002251 0.005506
0.501714 0.498423 -0.000842
0.002164 0.501228 0.000782
0.500476 0.502399 0.004472
0.250019 0.250318 0.001009
0.257409 0.245615 0.000987
0.265200 0.252633 0.000365
0.277995 0.248285 0.002262
0.280070 0.251875 -0.000474
0.293542 0.249284 0.001365
0.301005 0.250766 0.000885
0.311694 0.248877 0.002807
0.315958 0.252414 0.004679
0.323403 0.245688 0.000327
0.331950 0.248947 -0.000659
0.340599 0.252862 0.002251
0.352318 0.254624 -0.001542
0.353340 0.254047 0.000501
0.366555 0.246394 -0.002703
0.376384 0.249714 -0.004306
0.381452 0.252098 0.002557
0.392095 0.255668 0.002053
0.403621 0.252667 0.001662
0.405655 0.246799 -0.001483
0.417183 0.250002 0.000749
0.424960 0.250956 0.001975
0.433349 0.249424 -0.005243
0.443411 0.248453 -0.001818
0.451735 0.251837 0.001360
0.001906 -0.002188 -0.000458
-0.001100 0.503460 0.001728
-0.000488 0.001683 0.000749
0.499765 0.000934 0.001701
0.020549 -0.002501 0.000709
0.020305 0.497709 -0.001536
-0.000499 0.020888 0.001123
0.499575 0.021733 -0.000747
0.042758 0.000806 0.001138
0.044541 0.499434 -0.003187
-0.000156 0.043286 0.000050
0.500636 0.038221 -0.001668
0.063577 0.001556 -0.001501
0.063234 0.498578 -0.002305
0.000142 0.062934 0.000793
0.501460 0.065854 0.001897
0.082612 0.001879 -0.002935
0.083535 0.502107 0.001358
0.001656 0.087153 -0.001481
0.501590 0.083147 0.002229
0.104402 0.001564 0.003094
0.105428 0.499580 -0.000735
-0.001388 0.106243 0.002625
0.499511 0.100548 -0.001267
0.125868 -0.001894 -0.003917
0.124111 0.495920 0.000651
-0.000802 0.125121 0.002593
0.498184 0.120704 -0.000057
0.146771 -0.002859 -0.000737
0.145139 0.500056 -0.001231
0.005327 0.145308 0.000373
0.499031 0.140547 0.002762
0.160353 0.002714 -0.002643
0.163949 0.499782 0.004392
0.000639 0.166284 -0.001535
0.501301 0.165926 0.001428
0.183573 0.001057 0.000636
0.184780 0.497935 -0.000295
-0.000973 0.188080 -0.002869
0.498231 0.191728 -0.001685
0.207481 -0.000354 -0.000557
0.210747 0.498856 0.001710
-0.001711 0.209879 -0.000428
0.499650 0.208156 0.001100
0.226780 -0.001941 0.004074
0.230180 0.499278 0.001284
-0.000120 0.224664 0.000323
0.499756 0.229865 -0.001549
0.249559 0.002284 -0.000302
0.249142 0.500730 -0.000788
0.002136 0.249651 0.000727
0.498592 0.247504 0.001439
0.271357 0.001275 0.001473
0.267895 0.500240 -0.004012
0.001039 0.268662 0.000935
0.501452 0.269754 -0.000046
0.294111 -0.003308 0.001287
0.291903 0.501896 -0.003304
0.000007 0.293875 0.002718
0.498461 0.291108 0.003683
0.309660 -0.000091 0.000355
0.312850 0.498132 0.001929
0.001777 0.316132 -0.001586
0.499037 0.314693 0.003631
0.333313 -0.003056 -0.000432
0.335263 0.501356 0.002226
0.003850 0.332471 -0.001809
0.497595 0.333088 0.002038
0.357621 0.000438 0.000029
0.353901 0.502453 -0.001524
-0.000210 0.354012 -0.000054
0.503616 0.352383 0.004911
0.373689 -0.001641 -0.001322
0.376297 0.499972 0.002242
-0.001647 0.371654 -0.000742
0.500560 0.372060 -0.000213
0.396904 -0.001613 -0.001648
0.393643 0.499713 0.000913
0.005495 0.398164 -0.002523
0.496926 0.395613 0.003144
0.417981 -0.001055 0.002003
0.419421 0.502923 -0.002133
0.000875 0.414104 -0.001611
0.497443 0.416143 -0.002872
0.439050 -0.000025 -0.001729
0.438471 0.503061 0.000691
-0.001167 0.436932 -0.000208
0.498597 0.434077 -0.000757
0.460819 -0.001654 -0.003861
0.458156 0.502206 -0.003445
0.000380 0.459156 0.001074
0.501114 0.459550 -0.003168
0.480399 0.002755 -0.000443
0.479910 0.497971 0.002606
-0.001237 0.482466 -0.000760
0.501356 0.478100 0.003756
0.496056 0.000739 -0.004159
0.497590 0.503784 0.001816
-0.004021 0.499988 -0.001239
0.501140 0.503701 0.001308
0.250869 0.251016 -0.002185
0.259736 0.251842 -0.001225
0.265382 0.252900 0.000418
0.272725 0.249152 -0.000915
0.283204 0.249855 -0.000499
0.295015 0.251665 0.002966
0.296611 0.250222 0.002350
0.309784 0.248641 -0.001512
0.318587 0.249575 0.001297
0.325313 0.249765 0.000241
0.331674 0.253402 0.001096
0.344465 0.248942 -0.001081
0.349362 0.248277 0.001356
0.359758 0.248974 -0.000639
0.367420 0.248495 -0.000819
0.378121 0.248507 -0.001034
0.388343 0.245747 -0.002369
0.395261 0.249181 0.001000
0.404239 0.248566 -0.001183
0.409155 0.249848 -0.001050
0.416400 0.247344 0.000931
0.426669 0.249677 -0.000448
0.434431 0.248924 -0.000616
0.441530 0.252944 -0.000098
0.449773 0.249672 -0.000768
-0.001930 -0.001838 0.001721
-0.001138 0.500185 -0.000953
-0.002656 -0.000930 0.002794
0.499171 -0.001353 -0.000856
0.020164 0.000457 -0.000823
0.020638 0.499018 0.000715
0.000623 0.021257 0.001266
0.499801 0.023259 0.000932
0.044642 -0.000159 0.000544
0.040302 0.500031 0.001636
-0.000731 0.044651 0.000051
0.503166 0.039569 -0.000554
0.061507 0.002021 0.001284
0.062347 0.499088 -0.000054
0.001449 0.064171 -0.000119
0.499106 0.062704 0.000259
0.083838 -0.000907 0.003481
0.082076 0.503025 0.002787
0.001894 0.087081 0.001112
0.499367 0.082287 -0.001342
0.105841 -0.002961 -0.002845
0.107232 0.502026 0.000829
0.001847 0.105715 -0.000374
0.497063 0.106733 0.000892
0.122248 0.000285 -0.000937
0.124769 0.499344 0.001102
-0.000417 0.122690 0.001346
0.500972 0.122148 0.000818
0.147609 -0.000305 0.000375
0.144305 0.496500 0.001044
-0.000176 0.146693 -0.000470
0.499479 0.146158 -0.000127
0.168399 -0.000848 -0.002889
0.166955 0.497394 -0.005068
-0.002194 0.165789 -0.001592
0.496927 0.166217 0.002433
0.189159 0.000016 0.001842
0.186619 0.498236 0.001357
-0.002167 0.188168 -0.000051
0.499274 0.186584 0.002274
0.205155 0.000538 -0.000577
0.206850 0.500078 0.000632
-0.000120 0.208823 0.002830
0.498798 0.209169 -0.003477
0.230081 -0.003734 0.001263
0.228216 0.500328 -0.002911
0.000048 0.230815 0.001240
0.499965 0.229154 0.002291
0.251472 -0.001250 -0.001160
0.248640 0.499929 -0.002321
-0.004317 0.249563 0.000506
0.500373 0.252170 -0.002585
0.269807 -0.002885 0.000492
0.270624 0.499038 0.000083
-0.001414 0.268789 0.003161
0.501621 0.270465 -0.003083
0.291238 0.001149 0.000340
0.293685 0.502454 -0.000169
-0.000936 0.290678 -0.000827
0.501809 0.290818 -0.003362
0.313430 -0.000198 -0.000934
0.308573 0.502340 0.001393
-0.002274 0.312804 -0.002167
0.497279 0.308303 0.001559
0.335093 -0.000620 -0.000120
0.336843 0.498489 -0.002370
0.000255 0.334432 -0.000594
0.497148 0.331799 0.001370
0.355596 -0.003341 -0.002445
0.352196 0.499949 0.004414
-0.000572 0.354291 -0.001594
0.505171 0.352963 -0.001023
0.375312 -0.002649 0.001618
0.374983 0.498315 -0.001192
-0.003788 0.373889 -0.004549
0.499099 0.374009 -0.001178
0.394668 -0.001684 0.002468
0.398712 0.499661 0.002287
-0.000613 0.395228 -0.001658
0.501395 0.397069 -0.002581
0.416987 -0.001034 -0.001804
0.416615 0.496162 -0.000868
0.003779 0.417538 -0.002271
0.501107 0.416844 -0.000642
0.436328 0.000001 -0.001185
0.437154 0.501479 0.001631
-0.002593 0.436563 0.003214
0.503593 0.438240 0.003219
0.460750 -0.000264 -0.003993
0.458211 0.497436 0.000273
0.003492 0.458831 -0.001570
0.497661 0.454407 -0.003812
0.482420 0.001712 -0.000262
0.478861 0.499896 -0.000023
0.002784 0.479947 -0.003965
0.502121 0.475307 -0.000812
0.497228 0.000081 -0.002514
0.497244 0.497907 0.001628
-0.000371 0.501334 0.002721
0.500477 0.501140 -0.001939
0.249831 0.247702 0.001108
0.260146 0.251932 -0.000056
0.268458 0.249709 -0.001123
0.276004 0.251452 0.004407
0.284792 0.247798 -0.001956
0.289063 0.250155 -0.002199
0.302725 0.249417 0.001284
0.308637 0.250688 -0.002073
0.316600 0.249145 -0.000203
0.325249 0.251363 -0.000931
0.334981 0.250658 0.003278
0.335041 0.248715 0.002517
0.344958 0.252969 0.000164
0.354249 0.251451 -0.002105
0.364841 0.252929 -0.000774
0.373081 0.254016 0.001858
0.382664 0.248421 -0.000408
0.394821 0.248035 -0.002548
0.402549 0.249436 0.000201
0.409383 0.249220 -0.004848
0.416242 0.252482 0.004345
0.424764 0.249943 0.002731
0.434525 0.250591 -0.003958
0.440834 0.250430 -0.003028
0.449268 0.253417 -0.000514
-0.002869 -0.003774 -0.000023
-0.001155 0.498263 0.000455
0.000570 0.000349 0.000701
0.497542 -0.001281 -0.000652
0.020726 0.001979 -0.001456
0.019278 0.502975 0.000317
-0.002796 0.020211 -0.002472
0.497726 0.018165 -0.001592
0.045786 0.002021 0.002763
0.043842 0.499730 0.000807
0.000206 0.039531 -0.002325
0.501801 0.039230 0.000402
0.063804 0.001505 0.000739
0.060099 0.501081 -0.000277
-0.001955 0.058522 0.000902
0.496895 0.059085 0.003496
0.080931 -0.000840 0.000144
0.083474 0.497961 -0.001417
0.001611 0.082776 -0.000046
0.495675 0.082186 0.001715
0.102708 -0.001903 0.000750
0.105364 0.500667 -0.001133
0.001499 0.107425 0.002340
0.496873 0.110026 -0.002651
0.122548 0.000609 -0.000189
0.125723 0.502623 0.001861
-0.001787 0.125144 0.002022
0.502106 0.127249 0.001635
0.147249 -0.001027 -0.002636
0.146678 0.499092 0.002489
-0.001745 0.145071 -0.000856
0.501934 0.147336 0.000046
0.167251 0.003230 -0.003525
0.168163 0.502160 0.002429
0.001605 0.165119 -0.001078
0.501324 0.165488 -0.000397
0.184490 -0.002385 0.000693
0.186648 0.498482 -0.000376
0.000603 0.186978 0.000345
0.500177 0.186997 -0.000023
0.206559 -0.001003 -0.003674
0.206000 0.497626 -0.000798
0.002261 0.208315 0.000301
0.498115 0.208908 0.003392
0.228992 -0.001649 -0.002332
0.229692 0.498117 0.001427
-0.002025 0.225854 0.000960
0.497413 0.230379 0.002075
0.248814 0.000417 0.002784
0.249070 0.503197 -0.000657
-0.001875 0.250195 0.000450
0.502269 0.251773 0.000739
0.272146 0.000362 0.001584
0.269796 0.497837 0.000417
0.005378 0.272449 -0.001400
0.502788 0.267104 -0.000504
0.292462 -0.001346 -0.001188
0.291327 0.498915 -0.001568
-0.002168 0.288547 -0.001933
0.499797 0.293679 -0.001327
0.310077 0.003211 -0.002287
0.312689 0.498127 -0.001438
0.000773 0.313422 0.002542
0.501338 0.312808 0.001249
0.331273 0.002421 0.001065
0.334313 0.501197 -0.002959
-0.002268 0.333598 0.000290
0.501150 0.333546 -0.000369
0.356682 0.000699 0.001493
0.356557 0.502528 0.000635
0.001452 0.354699 0.002145
0.504561 0.352077 -0.001505
0.378167 0.000372 -0.000860
0.373612 0.501875 0.001121
0.004015 0.374818 0.001803
0.503308 0.372132 -0.002107
0.396376 -0.001145 -0.000843
0.394511 0.499704 -0.001808
-0.002559 0.396604 0.000250
0.501958 0.396877 0.000848
0.418172 -0.001830 -0.000997
0.417216 0.501870 0.001293
-0.000424 0.416294 0.000500
0.497687 0.418364 0.001545
0.439358 0.001987 0.001996
0.433732 0.500451 -0.002860
-0.001905 0.437234 0.002366
0.500662 0.437963 0.003571
0.458815 -0.001899 -0.002788
0.456587 0.500224 -0.003081
0.000876 0.458951 -0.001440
0.500208 0.459366 -0.001264
0.480632 -0.001433 0.001175
0.482082 0.500644 -0.002547
0.000177 0.479329 -0.001722
0.497481 0.478403 0.001737
0.501636 0.002400 -0.000090
0.503929 0.498308 0.000882
-0.000483 0.502983 0.000065
0.497936 0.500484 -0.002244
0.248256 0.251853 -0.000041
0.260045 0.248253 0.002594
0.266316 0.246085 -0.001791
0.272205 0.247072 0.001021
0.284065 0.251182 -0.001475
0.292730 0.247064 -0.000966
0.299682 0.248859 0.000201
0.308288 0.250942 0.000607
0.318577 0.249040 0.001303
0.325555 0.250486 0.000267
0.329020 0.253835 -0.001831
0.340074 0.249355 -0.002620
0.353492 0.248761 -0.001368
0.356674 0.250874 0.002792
0.367212 0.248452 0.002646
0.375567 0.248555 -0.000144
0.383596 0.250474 0.000003
0.391715 0.253726 0.005667
0.400346 0.248166 -0.002100
0.409960 0.246752 -0.000364
0.417457 0.250363 -0.000809
0.428676 0.251593 -0.000942
0.434900 0.249632 -0.001033
0.440852 0.252365 -0.001118
0.449857 0.252040 0.000608
0.000481 -0.001331 0.004662
0.001637 0.495263 0.002608
-0.002572 -0.002744 -0.001396
0.502516 -0.000545 0.000421
0.017493 0.002151 -0.000534
0.018255 0.500650 0.000980
0.000170 0.023416 0.001167
0.503004 0.020724 0.000219
0.043395 0.002317 -0.000666
0.045438 0.500231 0.000010
0.000884 0.039955 -0.003292
0.504112 0.043795 -0.001848
0.062774 0.001247 -0.000976
0.065366 0.499011 0.001985
-0.001261 0.063514 0.003100
0.500949 0.061524 0.000443
0.084783 -0.000856 -0.000790
0.086857 0.502794 -0.001327
-0.002637 0.080766 -0.002230
0.499432 0.083182 -0.002768
0.104476 -0.005806 0.000280
0.107382 0.497570 -0.005759
0.000333 0.105568 -0.000817
0.500457 0.106749 0.003379
0.126196 -0.002472 0.000339
0.122999 0.499969 -0.000483
-0.001142 0.128062 -0.000455
0.497038 0.125759 0.001372
0.145935 -0.001550 -0.000865
0.144656 0.498991 -0.001404
-0.000442 0.143122 0.000494
0.498435 0.147588 0.000763
0.169678 -0.002729 0.002822
0.166434 0.501238 0.001780
0.001922 0.166790 0.000909
0.499817 0.168122 -0.001784
0.188309 0.003079 0.004013
0.189636 0.502923 0.001047
0.002108 0.191390 -0.000109
0.496825 0.187159 0.000372
0.206685 -0.002396 -0.000986
0.205873 0.501825 0.003409
0.001351 0.205544 0.000414
0.498283 0.208893 -0.001646
0.231132 0.001405 -0.000641
0.230176 0.500126 0.003455
-0.003803 0.229992 0.002486
0.499266 0.228168 0.000355
0.248161 -0.001073 -0.002048
0.249645 0.495816 -0.001206
0.001117 0.249243 -0.000824
0.501798 0.253156 -0.001474
0.273243 -0.003501 -0.001692
0.271905 0.500515 0.000238
0.001730 0.270428 0.001525
0.499022 0.269578 -0.003750
0.293019 -0.001736 0.002015
0.293686 0.499556 0.000175
0.000396 0.291257 -0.002917
0.502891 0.290531 0.001059
0.313083 0.000579 0.000438
0.314324 0.498259 0.001984
0.000332 0.312578 -0.000830
0.499909 0.313658 -0.002344
0.329892 -0.000550 0.001404
0.332735 0.502742 0.002592
0.002805 0.336238 0.000527
0.501134 0.331969 -0.005371
0.354977 -0.001543 -0.000402
0.349196 0.501795 -0.000403
-0.001181 0.351857 -0.001625
0.498306 0.352225 -0.002826
0.374580 -0.000676 0.001719
0.371497 0.499108 -0.001783
0.000682 0.374895 0.001698
0.503676 0.375002 0.001060
0.394334 -0.000254 0.000050
0.400111 0.497721 -0.000268
0.000039 0.394325 0.000705
0.500028 0.396072 -0.001444
0.418136 -0.001861 -0.000744
0.418361 0.502796 -0.001500
0.001246 0.416496 0.002088
0.500223 0.420061 0.003065
0.435554 -0.000654 -0.001501
0.437338 0.496365 -0.003347
0.002040 0.438181 0.001507
0.498191 0.435398 -0.000387
0.461099 0.000151 0.000366
0.460689 0.500759 0.000364
0.000855 0.457952 0.003147
0.499791 0.456892 0.001363
0.481060 -0.000944 0.001448
0.481320 0.493297 -0.003449
0.000801 0.477306 0.003373
0.500648 0.478963 0.000124
0.499240 -0.001284 0.000244
0.502006 0.496906 0.000482
-0.000899 0.500172 -0.001504
0.500288 0.497856 -0.000041
0.249479 0.246669 0.000837
0.252710 0.249249 -0.002981
0.267181 0.249328 0.001634
0.274596 0.249574 0.002241
0.282404 0.249941 0.002853
0.292990 0.253966 0.000918
0.298941 0.252148 0.001845
0.307787 0.251080 -0.000165
0.317663 0.250065 -0.000260
0.328378 0.250912 -0.002661
0.333750 0.249402 0.000626
0.342147 0.250733 -0.003397
0.346864 0.252801 -0.000053
0.361010 0.251055 -0.001066
0.363290 0.251024 0.001035
0.378502 0.249595 0.000152
0.379717 0.248786 0.000492
0.390965 0.248252 0.002836
0.403205 0.247864 0.000198
0.407476 0.252970 0.000475
0.417861 0.248130 0.002655
0.424402 0.253726 0.002185
0.432031 0.251054 0.000487
0.441224 0.251500 -0.000051
0.450056 0.248737 -0.001489
0.000153 0.000357 0.002152
-0.002709 0.500225 0.003188
-0.001356 -0.002087 -0.001853
0.501583 -0.002532 0.000039
0.019495 -0.001151 -0.000613
0.020084 0.499265 -0.000108
0.000538 0.019926 0.000941
0.499041 0.019925 0.000084
0.038234 -0.001642 -0.001336
0.039621 0.499537 -0.001466
-0.001822 0.043699 0.004165
0.501988 0.042263 0.002248
0.063128 -0.000521 0.000223
0.061828 0.495590 -0.001683
-0.001658 0.063467 -0.000962
0.496401 0.062443 0.000573
0.084872 0.000729 0.004781
0.081599 0.502634 0.001842
-0.001271 0.083077 -0.001492
0.499752 0.082447 -0.000890
0.104156 -0.002072 0.002249
0.105923 0.498609 0.001725
-0.002103 0.100599 0.000630
0.501093 0.102688 0.001052
0.128921 0.006025 -0.001746
0.125653 0.497543 0.005663
-0.000872 0.126720 0.000189
0.497886 0.124586 -0.002707
0.144553 -0.000536 0.000450
0.141290 0.499869 0.005106
-0.001903 0.146485 -0.000846
0.494356 0.143843 -0.001367
0.168361 -0.000070 -0.000441
0.168013 0.500258 -0.000330
0.001336 0.163914 -0.000412
0.502507 0.162386 -0.001581
0.187813 0.000458 -0.000673
0.188360 0.498227 0.001959
0.000389 0.191130 0.001693
0.501103 0.190332 -0.001606
0.207747 -0.003500 0.001741
0.211642 0.499029 -0.002434
0.002250 0.206859 -0.001009
0.503079 0.207616 -0.000373
0.232390 0.001182 -0.002128
0.232177 0.496517 0.002015
0.000980 0.228120 -0.001558
0.497775 0.232625 0.000249
0.248739 0.001148 0.002409
0.250638 0.501394 0.001908
0.000118 0.250633 -0.000231
0.498015 0.247466 0.000901
0.269417 -0.000042 -0.000495
0.272774 0.500560 0.000613
-0.000573 0.270557 -0.000680
0.500499 0.267385 -0.000040
0.292402 0.000787 -0.002155
0.290824 0.499238 -0.001080
-0.002434 0.289494 0.000018
0.500771 0.291963 -0.001743
0.313270 -0.000398 -0.000991
0.310649 0.498981 0.001434
-0.000368 0.312254 -0.002002
0.505581 0.307970 -0.004056
0.332284 0.000399 0.003547
0.334361 0.500602 0.001839
0.000190 0.329423 0.000510
0.500435 0.337673 -0.001442
0.356681 -0.002720 0.003066
0.354432 0.501674 0.001408
0.001356 0.354362 -0.001312
0.499681 0.352636 -0.000225
0.371782 0.000344 0.001955
0.377404 0.502628 0.000305
-0.000308 0.374490 0.000785
0.501434 0.375676 -0.002691
0.398589 0.000955 0.001981
0.395937 0.499478 0.003875
-0.002140 0.392457 0.003992
0.500481 0.394977 -0.001170
0.412655 0.003735 0.001411
0.417687 0.501649 -0.001829
0.000917 0.418838 -0.004410
0.501192 0.418161 0.000203
0.435729 -0.000331 -0.000916
0.438226 0.498936 0.001529
-0.001037 0.436460 0.002337
0.499679 0.438563 -0.002595
0.461375 -0.002904 0.000194
0.457884 0.498474 -0.000549
0.002470 0.461811 -0.000473
0.499285 0.454577 0.003430
0.477035 -0.001820 0.000210
0.480635 0.503047 0.004349
0.001508 0.478206 -0.001314
0.499643 0.480776 0.001910
0.501234 -0.003789 -0.001132
0.502913 0.498934 -0.000161
0.005454 0.499852 0.002847
0.503677 0.501516 -0.000870
0.245440 0.248282 0.001287
0.259517 0.252345 -0.002212
0.267066 0.245900 -0.001766
0.276059 0.245636 0.001633
0.286995 0.247128 -0.000518
0.295104 0.251001 0.000795
0.300215 0.247256 -0.000274
0.310907 0.250174 0.001443
0.315943 0.248257 -0.000862
0.322894 0.247275 -0.000040
0.332876 0.248119 0.001392
0.339803 0.250851 0.000997
0.353332 0.250684 0.001579
0.358483 0.247186 0.001711
0.370025 0.249751 0.004188
0.376848 0.254002 -0.000362
0.381564 0.250112 -0.001452
0.392064 0.249517 0.000329
0.399820 0.248051 -0.001059
0.410872 0.249873 -0.002682
0.412633 0.249355 0.000558
0.422640 0.246425 0.001122
0.439722 0.251744 -0.001993
0.441431 0.249762 -0.002544
0.447192 0.249714 0.001580
0.000506 -0.001367 0.001019
0.001043 0.498035 -0.002436
0.001290 0.002272 0.000811
0.502358 0.002934 -0.003057
0.021791 0.002632 0.002267
0.023688 0.498825 0.001363
0.001553 0.019637 0.000381
0.497337 0.019136 0.000655
0.043769 -0.000002 0.003068
0.044645 0.498034 -0.000203
-0.001007 0.043313 0.001436
0.498413 0.043515 -0.002641
0.064856 -0.004878 -0.000358
0.061084 0.501352 0.000505
-0.004383 0.059809 -0.001174
0.502368 0.065763 0.001364
0.086179 -0.001506 0.000833
0.083587 0.497840 -0.000701
-0.000714 0.084246 0.000991
0.498903 0.082270 -0.003801
0.105177 -0.000207 -0.000058
0.105258 0.499009 -0.001928
-0.001204 0.103479 0.000435
0.498788 0.103285 -0.002659
0.124185 -0.003494 -0.001322
0.126080 0.500343 -0.000312
-0.000449 0.126801 -0.002357
0.500884 0.123567 0.000556
0.145529 -0.001086 0.000625
0.144541 0.497574 -0.000966
-0.002509 0.146124 -0.001216
0.497472 0.146562 0.000804
0.166298 -0.000585 0.001827
0.166124 0.500516 -0.002270
0.001115 0.166381 0.001036
0.499454 0.165161 -0.002404
0.187087 -0.000919 -0.002594
0.190002 0.502051 -0.004069
-0.004278 0.184461 0.000313
0.505359 0.185136 -0.000634
0.210999 -0.000991 0.002232
0.210202 0.499942 0.001764
0.001872 0.205528 -0.000349
0.498742 0.208393 -0.002427
0.227174 0.000112 -0.000015
0.231938 0.500421 0.002865
0.002621 0.231442 -0.007070
0.498454 0.230094 -0.002646
0.248944 0.001337 0.000095
0.249302 0.503465 -0.000844
0.002223 0.249901 0.000198
0.499283 0.248319 -0.000443
0.268102 0.001222 0.000226
0.269953 0.501589 -0.002084
-0.003935 0.271676 -0.002755
0.497209 0.271159 0.001933
0.290110 -0.001784 0.003013
0.288842 0.501696 0.000860
-0.001451 0.291394 -0.001720
0.498668 0.291361 -0.001414
0.309205 0.001425 -0.001209
0.314093 0.499692 0.005626
0.001116 0.309807 -0.002744
0.498207 0.311643 -0.003305
0.331081 0.000030 -0.003126
0.333133 0.500466 -0.002010
0.001208 0.333503 0.002187
0.501329 0.332908 -0.000315
0.355090 0.000756 -0.003386
0.356020 0.498878 0.002268
0.000358 0.352867 -0.000000
0.502881 0.352668 -0.003419
0.374489 0.002519 0.003176
0.377065 0.495759 -0.000474
-0.000956 0.374647 -0.002190
0.499450 0.372632 0.004640
0.395953 -0.001035 -0.002479
0.397749 0.501167 0.002324
0.000693 0.394896 -0.001456
0.498471 0.395023 0.001371
0.415563 0.000569 0.001506
0.415759 0.501957 0.000841
0.000766 0.416615 0.000347
0.498279 0.414990 0.000501
0.439289 -0.000461 0.001004
0.437038 0.498434 0.000025
0.000769 0.436122 -0.001188
0.499010 0.437866 -0.002950
0.458882 0.000523 0.000411
0.457209 0.500560 -0.002207
-0.001522 0.459931 -0.002657
0.498711 0.457178 0.001299
0.476286 -0.001178 -0.002171
0.482479 0.499447 -0.001039
0.000227 0.480895 -0.004146
0.497838 0.479603 -0.001260
0.497115 -0.001418 0.000313
0.500651 0.503920 -0.003278
-0.002962 0.497584 0.001946
0.498208 0.496962 0.001625
0.248520 0.252231 0.000429
0.257010 0.251788 0.001632
0.269671 0.249173 -0.000637
0.277944 0.252223 0.000514
0.281633 0.247905 -0.002862
0.289685 0.249586 -0.002384
0.301441 0.244843 -0.001602
0.306973 0.251217 0.001045
0.314205 0.250457 -0.002089
0.325583 0.247560 0.000256
0.336270 0.254080 0.002173
0.339604 0.248962 -0.001866
0.348780 0.246504 -0.001261
0.360569 0.254469 0.000869
0.367073 0.251346 -0.003161
0.373309 0.251610 -0.000466
0.382597 0.251708 -0.003813
0.394001 0.248376 0.001127
0.400001 0.251457 0.001985
0.406309 0.251675 0.001013
0.419518 0.248944 0.002375
0.426457 0.249116 0.002002
0.432589 0.251826 -0.000201
0.441883 0.250136 0.002028
0.449827 0.251161 0.001199
-0.001718 0.001848 0.002946
0.001022 0.500812 -0.001704
0.002579 -0.003068 0.000288
0.503100 -0.001378 0.001079
0.019381 0.001317 -0.002830
0.020009 0.498724 0.000203
-0.003402 0.023848 0.000620
0.499022 0.023811 -0.000048
0.042180 0.000577 0.003182
0.041982 0.497865 0.000179
0.000840 0.041615 -0.001299
0.498384 0.038273 0.000962
0.060831 -0.001285 0.001019
0.064658 0.497929 -0.000703
-0.000788 0.063512 -0.002080
0.498396 0.063340 -0.001206
0.081276 -0.000022 -0.001833
0.082786 0.502568 -0.000353
-0.000274 0.082392 -0.003042
0.500355 0.085367 0.002525
0.109874 -0.000591 0.000404
0.101967 0.503704 0.001983
0.001922 0.105360 -0.000265
0.494924 0.106667 0.001335
0.125515 -0.001653 0.001735
0.125597 0.500401 -0.002214
-0.002244 0.124821 -0.000212
0.497920 0.128469 -0.000877
0.145703 0.000520 0.002944
0.144283 0.499629 -0.002549
0.002098 0.146686 0.000317
0.500569 0.149465 -0.000220
0.165499 -0.001158 0.002062
0.167843 0.500960 -0.001297
0.001093 0.167868 0.000212
0.499736 0.167614 0.000799
0.186540 -0.000624 -0.003430
0.188695 0.499781 0.003099
-0.003569 0.187839 0.001186
0.498603 0.188466 0.000566
0.209392 -0.000467 -0.006354
0.208495 0.500188 -0.001462
-0.002651 0.209379 0.000793
0.503159 0.206720 0.002371
0.229201 -0.000993 0.000998
0.230920 0.498950 0.003141
0.000038 0.226701 -0.002277
0.502144 0.228061 0.000178
0.250212 -0.000225 0.001959
0.249036 0.497781 -0.004603
-0.000237 0.249472 0.002477
0.498592 0.252046 -0.000578
0.274275 -0.001947 -0.000802
0.272191 0.502377 0.001688
-0.002670 0.273010 -0.000019
0.496744 0.269716 -0.000697
0.290068 0.002612 0.001074
0.293945 0.498240 -0.003340
0.000904 0.291735 0.001726
0.501320 0.291978 0.001602
0.312653 0.000410 0.003957
0.315079 0.497896 -0.003164
0.002715 0.311627 -0.000263
0.499024 0.313154 -0.000828
0.330953 -0.003570 -0.004784
0.331225 0.502449 -0.001875
-0.000047 0.335576 0.002628
0.498886 0.334756 -0.000751
0.350290 0.001915 0.000220
0.352413 0.500412 0.000667
0.000333 0.352230 -0.000349
0.500611 0.355674 -0.000432
0.372834 0.000849 0.002474
0.373809 0.501012 0.002097
0.002117 0.377689 0.000567
0.502815 0.377705 -0.001655
0.396453 0.000470 -0.001369
0.395175 0.495984 0.001421
0.001698 0.398135 0.002697
0.498790 0.395513 0.003087
0.418826 -0.001475 -0.004721
0.416209 0.497863 0.000125
0.001942 0.413772 0.000550
0.497568 0.421631 0.000103
0.438450 -0.002088 -0.004266
0.435582 0.498087 0.002345
-0.002295 0.439154 0.000843
0.499777 0.432527 -0.001099
0.460275 0.001075 0.000299
0.455460 0.500252 0.000507
-0.000972 0.459200 -0.001421
0.495984 0.457047 -0.001381
0.481605 0.001439 -0.000101
0.478073 0.501116 0.002988
-0.001934 0.477888 0.002302
0.500962 0.478290 0.002311
0.501103 -0.001886 0.000549
0.499986 0.503305 0.001215
0.000967 0.500267 0.001042
0.497222 0.497091 0.000779
0.250799 0.249193 -0.003996
0.256158 0.251076 0.000254
0.265384 0.248142 0.000533
0.274698 0.249681 -0.001009
0.283634 0.250565 -0.001253
0.294992 0.248822 0.000333
0.296897 0.248002 0.001841
0.309786 0.250429 -0.001345
0.317374 0.248014 0.002140
0.319742 0.249230 -0.001594
0.335923 0.249604 0.002475
0.344558 0.250910 -0.003276
0.348492 0.249002 0.000801
0.359093 0.247341 0.001569
0.364637 0.249292 0.000515
0.374740 0.253138 0.002279
0.380695 0.247749 0.002300
0.391893 0.251257 0.000050
0.402461 0.251543 0.001573
0.406980 0.251215 -0.003220
0.416185 0.248729 -0.001553
0.423126 0.245985 0.002477
0.432908 0.249646 0.001002
0.443797 0.252674 -0.000863
0.450376 0.248189 0.001466
0.000042 0.001818 0.001655
0.001563 0.501072 0.000174
-0.002485 0.000658 0.003367
0.499132 -0.001355 0.001236
0.024182 -0.002082 -0.004832
0.019604 0.500199 -0.000286
-0.000521 0.019828 -0.001294
0.498346 0.021553 0.001145
0.038496 0.003164 0.000883
0.042775 0.499434 0.000510
-0.002247 0.044833 0.002830
0.499521 0.039029 -0.000612
0.063683 -0.000788 -0.001591
0.062822 0.498252 0.002671
0.001891 0.063828 -0.001416
0.500414 0.064719 -0.004186
0.083745 0.002812 0.003623
0.081432 0.500552 0.002089
0.002412 0.079654 -0.004019
0.500309 0.084330 -0.000249
0.103511 0.002556 0.002955
0.102982 0.500315 -0.002314
0.003471 0.101358 -0.002140
0.498220 0.102070 0.002555
0.129643 0.000521 -0.000672
0.126444 0.498186 0.002676
-0.000073 0.125841 -0.001383
0.499591 0.121761 0.000037
0.147614 -0.003703 -0.002020
0.144881 0.499381 -0.000181
-0.000090 0.146401 -0.000071
0.496636 0.146461 0.002407
0.167183 -0.003547 0.000465
0.167617 0.498022 0.000152
0.002553 0.169901 0.000253
0.501015 0.166336 -0.000820
0.190270 0.001925 0.001234
0.186447 0.502935 0.002081
-0.002583 0.189677 0.000337
0.500557 0.183466 -0.002926
0.210312 -0.001534 0.001625
0.205679 0.497050 0.003822
0.001819 0.208077 0.000447
0.498583 0.209045 0.002359
0.228336 0.000971 -0.003384
0.232770 0.502009 -0.000060
-0.000669 0.231989 -0.001010
0.500740 0.228539 -0.001845
0.252078 -0.000824 0.000928
0.249305 0.499731 -0.000342
-0.001310 0.251467 -0.000174
0.501725 0.251494 0.002445
0.269850 0.001327 -0.000349
0.270789 0.498571 -0.000949
0.001260 0.270149 -0.001459
0.501697 0.271547 -0.002437
0.291878 0.002256 0.002192
0.290592 0.497779 -0.000731
0.002688 0.293154 -0.004587
0.501718 0.287231 0.003865
0.314191 -0.000789 0.000214
0.313822 0.499013 0.000927
-0.000259 0.311998 0.003050
0.495922 0.312594 -0.002786
0.332969 -0.001416 0.005093
0.332305 0.499726 -0.001237
0.001779 0.332313 -0.001310
0.503741 0.334895 0.000538
0.358991 -0.001266 -0.001625
0.352580 0.502406 -0.001238
0.002381 0.352908 -0.003629
0.498397 0.354741 0.002385
0.377603 0.000733 0.001368
0.369711 0.500525 0.000077
-0.000618 0.373668 0.001759
0.502279 0.378929 -0.000390
0.394241 0.003770 -0.000641
0.394792 0.497226 0.000840
0.001211 0.397521 0.000446
0.501088 0.396942 0.001029
0.419024 0.001705 0.000378
0.415592 0.501606 -0.001154
-0.000295 0.415234 0.004266
0.498058 0.417994 0.001353
0.439252 -0.000079 0.000168
0.437106 0.494564 -0.001528
0.002728 0.435867 0.000270
0.505275 0.435564 -0.001009
0.457829 -0.003997 -0.001737
0.455476 0.501088 -0.000494
-0.004265 0.459954 0.001944
0.499277 0.460227 0.001175
0.477338 0.000562 0.000369
0.477496 0.497947 0.000816
0.004613 0.479092 0.000421
0.497891 0.478648 -0.000405
0.499247 -0.001312 -0.000097
0.498874 0.502483 0.004100
-0.001523 0.499273 0.000867
0.501166 0.498473 -0.001142
0.251173 0.246723 0.004430
0.258936 0.249392 -0.000301
0.264520 0.253605 -0.000168
0.274130 0.253514 0.002064
0.282944 0.250872 -0.000664
0.290942 0.249558 0.000595
0.302190 0.253955 -0.004345
0.312978 0.252049 0.000033
0.315807 0.246264 0.002389
0.322811 0.251304 -0.000829
0.330082 0.250837 0.000973
0.339795 0.251719 0.003611
0.350981 0.250863 -0.001468
0.356255 0.249188 0.000138
0.366690 0.249602 0.004983
0.376142 0.248047 -0.002401
0.379856 0.247981 0.001157
0.391096 0.248614 0.001179
0.401098 0.250743 -0.000026
0.408260 0.247363 -0.003690
0.415054 0.248423 -0.001638
0.424654 0.249052 -0.002609
0.433128 0.250672 -0.000985
0.443305 0.250631 0.000779
0.449253 0.250827 0.001365
-0.003858 0.002137 -0.001022
0.001301 0.495387 -0.000868
-0.003398 -0.000297 0.000363
0.500814 0.000041 -0.002505
0.023439 -0.002691 -0.000673
0.019280 0.498795 -0.002806
0.002171 0.022326 0.000143
0.499711 0.018913 -0.000220
0.039851 0.000173 0.000787
0.041172 0.500798 0.001167
0.001609 0.045616 -0.002855
0.497532 0.039234 -0.000396
0.059311 -0.001061 0.001676
0.063959 0.503279 0.001707
0.002026 0.061442 -0.000716
0.501758 0.064217 -0.003833
0.080556 -0.001956 -0.001720
0.085968 0.503612 0.000660
0.000681 0.087217 0.000897
0.501118 0.084079 0.000749
0.106865 0.001453 0.000171
0.103380 0.500520 -0.003325
0.000921 0.104419 0.000642
0.497687 0.105104 0.000366
0.124986 0.000740 -0.001659
0.122087 0.500908 -0.004404
0.001190 0.129135 0.000742
0.501707 0.128255 0.002088
0.150387 -0.001742 -0.000682
0.146800 0.496770 -0.000013
0.000133 0.148429 0.002134
0.501532 0.147227 0.000123
0.167251 0.001519 0.002023
0.165229 0.500899 -0.000151
0.000531 0.168975 -0.000501
0.498156 0.164845 -0.001146
0.188719 -0.000331 -0.001196
0.189046 0.500320 0.001401
0.004386 0.191263 0.000690
0.500678 0.189727 0.002556
0.207617 -0.002450 0.001726
0.208784 0.501220 0.001086
-0.001397 0.207313 0.002143
0.499677 0.206770 -0.000551
0.229962 -0.001020 0.003475
0.230791 0.497020 0.000459
0.003138 0.235759 -0.000942
0.500049 0.226454 0.001113
0.250958 0.000566 -0.002168
0.251563 0.503656 0.002717
0.000724 0.249899 0.001797
0.499718 0.244942 -0.003436
0.273570 0.002661 -0.000251
0.269237 0.499399 -0.002572
-0.000508 0.274327 -0.001251
0.498411 0.268145 0.000411
0.289767 0.001301 -0.000617
0.295029 0.501183 0.000954
-0.002814 0.291715 0.000608
0.500686 0.292377 0.000245
0.310165 -0.004814 -0.002232
0.314528 0.501601 0.002285
0.000656 0.312954 0.000035
0.496584 0.312856 -0.001295
0.332115 -0.001977 -0.000134
0.335164 0.501599 -0.001942
0.000484 0.333185 -0.004022
0.501880 0.332039 0.001161
0.352584 0.001556 0.002497
0.354690 0.501086 -0.001307
-0.000634 0.351929 0.002105
0.502373 0.353207 0.000076
0.373667 -0.002618 -0.001029
0.372606 0.496119 0.000592
-0.001991 0.374916 -0.005316
0.500177 0.373616 -0.001251
0.397574 -0.000245 0.000598
0.395940 0.500962 -0.001583
-0.000023 0.395367 0.001418
0.498847 0.397340 0.001057
0.415505 0.001453 -0.000798
0.415387 0.498399 -0.002149
0.000623 0.416274 -0.000614
0.501708 0.418430 0.000220
0.433629 0.000970 -0.003918
0.435715 0.499678 0.003069
-0.004964 0.434437 -0.001431
0.501382 0.434236 -0.001600
0.460759 0.001764 -0.001216
0.460361 0.500170 -0.001814
-0.001427 0.457078 -0.002157
0.500918 0.460353 -0.002880
0.480499 -0.002089 -0.000145
0.479774 0.502028 -0.000048
0.000498 0.482425 0.003231
0.502106 0.480668 0.001016
0.503278 0.001475 -0.001356
0.500212 0.500822 -0.002785
-0.001156 0.503421 -0.002274
0.501020 0.500626 0.001930
0.248446 0.248446 0.000106
0.257076 0.253097 0.000364
0.268373 0.248008 0.001180
0.279979 0.249890 -0.002242
0.285611 0.249051 -0.002577
0.289411 0.247636 0.001045
0.298300 0.248262 -0.000744
0.309185 0.251780 0.002466
0.316002 0.252033 -0.001575
0.328421 0.251240 0.000531
0.330157 0.251948 -0.000936
0.340444 0.248358 -0.001212
0.350987 0.250855 0.000104
0.362080 0.247503 0.000572
0.364010 0.251127 0.001147
0.375272 0.251012 0.001169
0.384301 0.247232 0.001755
0.395164 0.252247 -0.000520
0.403932 0.250494 0.002345
0.409699 0.252886 -0.003184
0.415081 0.251049 -0.000478
0.424273 0.253008 -0.001122
0.433952 0.250753 -0.000453
0.437039 0.246277 -0.000517
0.454402 0.248560 -0.000047
0.004156 0.000076 0.001019
0.000623 0.498325 -0.001716
-0.001005 -0.000015 -0.001467
0.499012 0.000520 0.002399
0.025553 -0.001423 0.000569
0.018869 0.498762 -0.003441
0.003453 0.019981 0.001919
0.497891 0.016143 0.003416
0.038435 -0.002068 0.002405
0.041846 0.499628 0.002670
-0.000565 0.043269 -0.002473
0.502855 0.040554 0.000357
0.061063 -0.001627 -0.000560
0.064335 0.499510 0.000389
-0.000943 0.065148 -0.002930
0.496647 0.065329 -0.004323
0.086775 -0.000030 0.000869
0.083980 0.498685 0.001036
0.004075 0.085773 -0.001425
0.502480 0.080989 -0.000437
0.104458 0.002487 -0.002770
0.106268 0.499176 -0.003277
0.001995 0.103334 -0.004007
0.501593 0.100794 -0.000756
0.122747 -0.001622 0.002178
0.126270 0.496984 -0.000451
0.000136 0.127713 0.000921
0.497580 0.122418 0.001328
0.147360 -0.001201 -0.001252
0.146853 0.500579 -0.005260
-0.000543 0.147480 -0.002968
0.501741 0.143338 0.000464
0.164975 -0.003230 0.000442
0.166462 0.503043 0.001663
-0.003177 0.167323 0.001963
0.501697 0.170387 0.003906
0.186087 0.000777 0.004803
0.190056 0.498659 -0.003050
-0.003113 0.188812 -0.000215
0.499633 0.186341 -0.001721
0.209566 -0.000055 0.000862
0.205059 0.503580 0.002358
0.002141 0.204206 0.001781
0.497133 0.209192 0.002326
0.231310 0.001452 0.003705
0.229497 0.498385 -0.001056
0.000039 0.230844 -0.002126
0.501631 0.229118 -0.000920
0.248132 -0.000943 0.000611
0.249611 0.501509 -0.003223
-0.002940 0.247926 0.002219
0.499722 0.250075 0.001184
0.272146 -0.001068 -0.002855
0.270116 0.496943 -0.000134
-0.001533 0.271408 0.000392
0.499272 0.272103 0.005674
0.287977 0.004853 -0.001946
0.288958 0.498077 0.001468
0.000432 0.290427 -0.001159
0.498481 0.292850 0.002510
0.311989 -0.001359 -0.000752
0.307885 0.499891 0.000766
-0.000738 0.311491 0.002242
0.500627 0.313275 0.001006
0.333620 0.002627 -0.002739
0.333271 0.495434 -0.000841
0.004007 0.330764 -0.002206
0.499850 0.335060 0.001360
0.353079 0.003395 -0.000116
0.356444 0.503187 -0.001966
-0.002990 0.355238 0.000372
0.500068 0.354703 -0.000201
0.378123 -0.006021 0.002542
0.375518 0.499745 -0.001950
0.002465 0.372679 0.000216
0.502275 0.371690 0.000632
0.396455 0.000854 -0.000930
0.397004 0.502077 -0.000601
0.004167 0.393560 -0.001357
0.502405 0.395400 -0.001874
0.415774 0.003029 0.001588
0.414814 0.496253 0.002984
0.000491 0.415821 -0.001815
0.495855 0.414024 0.000601
0.436513 0.003291 0.001838
0.436316 0.498146 0.002580
-0.000746 0.442787 0.000193
0.497270 0.433419 -0.001471
0.461224 -0.000494 -0.005000
0.457083 0.499420 0.002740
0.000865 0.458033 0.000606
0.504449 0.460451 -0.001483
0.480535 0.002264 0.004659
0.479740 0.499353 0.000715
-0.000955 0.479468 -0.001610
0.500047 0.476253 0.001688
0.501597 -0.003302 0.001494
0.498879 0.502826 0.002009
0.002174 0.501182 -0.002086
0.495846 0.500271 -0.002545
0.250380 0.247023 0.001562
0.259365 0.247441 -0.001929
0.267514 0.251770 0.000460
0.273612 0.250324 -0.000453
0.282264 0.247183 0.000083
0.290029 0.249744 -0.004028
0.301673 0.248877 0.000159
0.311334 0.253107 0.001324
0.314624 0.249824 0.000600
0.325539 0.250281 0.001641
0.334650 0.252438 0.001645
0.340277 0.249362 -0.000025
0.350826 0.249016 -0.000021
0.357670 0.248931 0.000826
0.368486 0.253545 0.002045
0.374215 0.252542 -0.002861
0.384165 0.248882 -0.001102
0.395629 0.249159 0.000492
0.401181 0.249949 -0.002722
0.408990 0.249315 -0.000212
0.416620 0.250912 0.000822
0.421963 0.250440 0.003528
0.429518 0.248148 -0.001380
0.437695 0.246340 -0.001919
0.452298 0.249265 -0.001866
-0.000336 0.000978 0.000971
0.000085 0.505283 0.000529
0.000867 -0.001061 -0.001723
0.497671 -0.002580 0.001101
0.021157 -0.001261 -0.000702
0.022952 0.499586 0.000068
0.000579 0.021827 -0.001512
0.495073 0.016932 0.000706
0.040513 -0.000684 -0.003434
0.040066 0.500239 0.000079
-0.002158 0.039357 0.003854
0.499500 0.041448 -0.002683
0.060938 -0.000555 -0.002301
0.062681 0.497688 -0.001489
-0.001596 0.059180 -0.003157
0.500240 0.060439 -0.000371
0.083042 0.000663 0.001625
0.082038 0.497696 0.000390
0.001712 0.082643 -0.000133
0.499612 0.083024 0.001270
0.103358 0.001208 0.000829
0.108467 0.498557 0.002300
0.001606 0.101721 0.001132
0.501223 0.102948 -0.004922
0.126491 -0.002592 -0.000345
0.121451 0.501187 -0.003672
-0.001175 0.123871 -0.000014
0.497034 0.125919 0.000967
0.145107 -0.000569 -0.005506
0.149044 0.499546 0.001294
0.000366 0.145945 0.001378
0.498721 0.147872 0.003150
0.167068 -0.000314 0.001955
0.167493 0.499250 -0.000683
0.000250 0.168191 -0.001007
0.501580 0.170592 0.001185
0.187374 0.001138 -0.000884
0.185261 0.498483 -0.002739
0.001922 0.186545 -0.003701
0.501022 0.188226 0.000607
0.205651 -0.002235 0.003524
0.207124 0.500911 0.000246
-0.002771 0.205385 0.000991
0.499380 0.207769 0.002084
0.225921 -0.000120 0.002343
0.230853 0.499448 0.000939
0.001249 0.227416 -0.002955
0.501729 0.229274 0.003638
0.248712 0.001992 0.001660
0.250985 0.500058 -0.001891
-0.000584 0.249013 0.000046
0.497907 0.250492 0.003564
0.269077 0.001062 -0.003782
0.271836 0.500524 -0.001821
0.001102 0.271042 0.003616
0.500226 0.271623 -0.000292
0.289422 0.005204 0.000365
0.292278 0.500170 -0.002934
-0.002720 0.288316 0.002642
0.501004 0.290996 -0.002862
0.310838 -0.000208 -0.002468
0.314246 0.498392 -0.000563
-0.000201 0.308123 0.001618
0.500080 0.308068 -0.000782
0.332665 -0.002069 0.000698
0.335742 0.500693 -0.002822
-0.001355 0.329377 0.000401
0.498004 0.333884 0.001602
0.355923 0.000415 -0.000512
0.350924 0.504363 0.004418
-0.000187 0.355029 -0.002300
0.499224 0.354219 -0.001180
0.378515 0.000622 -0.001242
0.374184 0.500487 -0.003184
0.000964 0.374921 0.001797
0.500711 0.373693 -0.001340
0.398606 0.000857 0.001191
0.397021 0.499819 -0.002190
0.003598 0.395446 0.002577
0.499822 0.398048 -0.001732
0.414034 -0.000559 -0.000965
0.417989 0.500687 -0.003093
-0.001483 0.413869 -0.001497
0.499814 0.415425 0.002333
0.438337 -0.001699 0.002575
0.439322 0.500391 -0.000729
0.003874 0.439096 -0.002150
0.500323 0.435834 0.001790
0.456276 -0.001274 -0.001235
0.459294 0.497901 0.000015
-0.004301 0.460034 -0.005371
0.500354 0.458833 -0.000999
0.481366 0.002258 0.002147
0.481435 0.500655 -0.000759
0.000527 0.481369 -0.000106
0.495198 0.475810 0.003605
0.498354 -0.001222 0.001889
0.501793 0.501117 0.000289
-0.004244 0.504437 -0.000758
0.502179 0.500284 -0.001071
0.249466 0.249663 0.003302
0.255747 0.250794 0.003612
0.265648 0.250072 -0.002349
0.278291 0.247733 0.001292
0.279400 0.248276 0.000444
0.289439 0.249489 -0.002680
0.300178 0.247636 -0.002121
0.308865 0.246191 0.001262
0.315034 0.253194 -0.001051
0.323236 0.250216 0.001995
0.328462 0.248717 0.002515
0.339587 0.247561 -0.003182
0.349308 0.247488 0.000897
0.355329 0.249047 -0.000385
0.365449 0.249524 -0.001927
0.373220 0.252457 0.000848
0.384178 0.252110 0.000807
0.391055 0.251159 -0.000491
0.403491 0.250418 0.000093
0.411460 0.251650 -0.001406
0.417623 0.247440 -0.000495
0.425351 0.250281 -0.000331
0.431423 0.250798 0.001111
0.440318 0.249956 0.000986
0.450985 0.250709 0.000949
0.001208 0.001448 0.000914
-0.001017 0.500670 -0.001335
-0.001169 0.000684 0.000118
0.498647 0.001120 -0.001512
0.021755 -0.002661 0.002644
0.021809 0.500927 0.000036
-0.002656 0.017495 0.000147
0.499258 0.021487 0.002076
0.042498 -0.001920 0.001269
0.040447 0.500801 0.001196
-0.001039 0.044587 -0.000682
0.500059 0.044210 0.000374
0.060837 -0.000698 0.000463
0.061613 0.498984 0.001894
-0.000387 0.065976 -0.000322
0.497958 0.062009 0.001862
0.082176 0.002236 0.000014
0.084124 0.498549 0.000065
-0.000012 0.085431 -0.000931
0.496875 0.081126 -0.001358
0.105439 -0.001789 -0.001959
0.103558 0.499960 -0.000175
-0.002568 0.103539 0.001905
0.500785 0.104932 -0.001518
0.124437 -0.002499 0.001139
0.126689 0.499537 -0.000758
-0.001668 0.124762 0.003335
0.498563 0.125440 0.001818
0.145639 -0.002620 0.000676
0.148887 0.500306 -0.000078
-0.000102 0.141575 0.000633
0.499036 0.144007 0.002467
0.164760 0.000195 -0.002478
0.167339 0.497185 0.000443
0.000235 0.168139 -0.002596
0.499124 0.165019 0.001441
0.184039 -0.000784 0.000973
0.187848 0.496929 0.002226
0.000118 0.189497 -0.000846
0.500071 0.187893 -0.000877
0.212758 -0.000544 0.000677
0.207047 0.498888 -0.000294
-0.001431 0.206435 0.000074
0.499168 0.212587 -0.000366
0.227847 0.001233 0.003500
0.225958 0.502454 -0.002118
-0.000982 0.226384 -0.000939
0.497225 0.227951 -0.000675
0.249707 0.000508 0.000529
0.249843 0.502593 0.000336
0.002410 0.250263 -0.001279
0.497284 0.244414 -0.000865
0.268522 -0.000047 0.002563
0.266315 0.501346 -0.003030
-0.003708 0.275311 0.001513
0.494053 0.273516 -0.000454
0.294652 -0.001853 0.000395
0.291902 0.495857 0.000257
0.001593 0.289753 0.001051
0.501315 0.291709 0.002268
0.313781 0.003229 0.000519
0.314580 0.499712 0.001354
0.000684 0.313383 0.001482
0.499366 0.311858 -0.003605
0.333790 -0.002345 -0.001541
0.332566 0.501310 0.001150
0.000925 0.332972 0.000563
0.498217 0.336410 0.003243
0.352966 -0.002484 -0.002320
0.352311 0.498136 0.000608
0.000362 0.355863 0.000361
0.500422 0.353567 0.003121
0.378222 -0.001583 0.000605
0.374482 0.499474 -0.001125
-0.002300 0.374454 0.001883
0.502752 0.376892 0.000287
0.398524 -0.000157 -0.000246
0.393178 0.502373 0.002025
-0.001903 0.393319 0.003984
0.500452 0.393680 -0.000617
0.417820 0.002149 0.001618
0.419884 0.501454 0.000905
0.002448 0.415666 -0.001169
0.497176 0.418196 -0.001403
0.438009 0.000206 -0.000676
0.436691 0.501981 0.003245
-0.000839 0.435939 0.003858
0.500180 0.436385 -0.000661
0.460043 -0.000173 0.000187
0.455755 0.498443 0.002226
0.000838 0.460351 -0.003403
0.498836 0.458954 0.001342
0.483330 0.000402 -0.001784
0.477646 0.497320 0.002689
-0.000307 0.477884 0.002294
0.502693 0.478530 -0.001038
0.500582 -0.003385 0.000999
0.501359 0.500369 0.001420
0.000033 0.500346 0.002776
0.500225 0.503250 0.001716
0.249473 0.249916 -0.001353
0.260767 0.255552 -0.000510
0.267261 0.250972 0.000186
0.274668 0.251273 -0.002925
0.281587 0.250472 0.000134
0.292065 0.251171 0.002395
0.297899 0.248640 0.002149
0.308514 0.250376 0.002422
0.312999 0.252983 0.000396
0.322451 0.252427 0.003596
0.336345 0.249497 0.001394
0.342741 0.247262 0.005125
0.348014 0.254132 -0.000060
0.358864 0.249491 0.002797
0.370246 0.250363 -0.001253
0.373603 0.251342 -0.004453
0.380117 0.250021 0.000615
0.390701 0.249137 -0.003444
0.399220 0.249690 0.000584
0.409482 0.246104 0.003130
0.412443 0.251033 -0.000901
0.426967 0.251104 -0.000379
0.432706 0.246668 -0.000180
0.440205 0.248114 -0.002234
0.450020 0.249156 0.001742
