# .PCD v0.7
VERSION 0.7
FIELDS x y z
SIZE 4 4 4
TYPE F F F
COUNT 1 1 1
WIDTH 125
HEIGHT 1
VIEWPOINT 0 0 0 1 0 0 0
POINTS 125
DATA ascii
0.001208 0.001448 0.000914
-0.001017 0.500670 -0.001335
-0.001169 0.000684 0.000118
0.498647 0.001120 -0.001512
0.021755 -0.002661 0.002644
0.021809 0.500927 0.000036
-0.002656 0.017495 0.000147
0.499258 0.021487 0.002076
0.042498 -0.001920 0.001269
0.040447 0.500801 0.001196
-0.001039 0.044587 -0.000682
0.500059 0.044210 0.000374
0.060837 -0.000698 0.000463
0.061613 0.498984 0.001894
-0.000387 0.065976 -0.000322
0.497958 0.062009 0.001862
0.082176 0.002236 0.000014
0.084124 0.498549 0.000065
-0.000012 0.085431 -0.000931
0.496875 0.081126 -0.001358
0.105439 -0.001789 -0.001959
0.103558 0.499960 -0.000175
-0.002568 0.103539 0.001905
0.500785 0.104932 -0.001518
0.124437 -0.002499 0.001139
0.126689 0.499537 -0.000758
-0.001668 0.124762 0.003335
0.498563 0.125440 0.001818
0.145639 -0.002620 0.000676
0.148887 0.500306 -0.000078
-0.000102 0.141575 0.000633
0.499036 0.144007 0.002467
0.164760 0.000195 -0.002478
0.167339 0.497185 0.000443
0.000235 0.168139 -0.002596
0.499124 0.165019 0.001441
0.184039 -0.000784 0.000973
0.187848 0.496929 0.002226
0.000118 0.189497 -0.000846
0.500071 0.187893 -0.000877
0.212758 -0.000544 0.000677
0.207047 0.498888 -0.000294
-0.001431 0.206435 0.000074
0.499168 0.212587 -0.000366
0.227847 0.001233 0.003500
0.225958 0.502454 -0.002118
-0.000982 0.226384 -0.000939
0.497225 0.227951 -0.000675
0.249707 0.000508 0.000529
0.249843 0.502593 0.000336
0.002410 0.250263 -0.001279
0.497284 0.244414 -0.000865
0.268522 -0.000047 0.002563
0.266315 0.501346 -0.003030
-0.003708 0.275311 0.001513
0.494053 0.273516 -0.000454
0.294652 -0.001853 0.000395
0.291902 0.495857 0.000257
0.001593 0.289753 0.001051
0.501315 0.291709 0.002268
0.313781 0.003229 0.000519
0.314580 0.499712 0.001354
0.000684 0.313383 0.001482
0.499366 0.311858 -0.003605
0.333790 -0.002345 -0.001541
0.332566 0.501310 0.001150
0.000925 0.332972 0.000563
0.498217 0.336410 0.003243
0.352966 -0.002484 -0.002320
0.352311 0.498136 0.000608
0.000362 0.355863 0.000361
0.500422 0.353567 0.003121
0.378222 -0.001583 0.000605
0.374482 0.499474 -0.001125
-0.002300 0.374454 0.001883
0.502752 0.376892 0.000287
0.398524 -0.000157 -0.000246
0.393178 0.502373 0.002025
-0.001903 0.393319 0.003984
0.500452 0.393680 -0.000617
0.417820 0.002149 0.001618
0.419884 0.501454 0.000905
0.002448 0.415666 -0.001169
0.497176 0.418196 -0.001403
0.438009 0.000206 -0.000676
0.436691 0.501981 0.003245
-0.000839 0.435939 0.003858
0.500180 0.436385 -0.000661
0.460043 -0.000173 0.000187
0.455755 0.498443 0.002226
0.000838 0.460351 -0.003403
0.498836 0.458954 0.001342
0.483330 0.000402 -0.001784
0.477646 0.497320 0.002689
-0.000307 0.477884 0.002294
0.502693 0.478530 -0.001038
0.500582 -0.003385 0.000999
0.501359 0.500369 0.001420
0.000033 0.500346 0.002776
0.500225 0.503250 0.001716
0.249473 0.249916 -0.001353
0.260767 0.255552 -0.000510
0.267261 0.250972 0.000186
0.274668 0.251273 -0.002925
0.281587 0.250472 0.000134
0.292065 0.251171 0.002395
0.297899 0.248640 0.002149
0.308514 0.250376 0.002422
0.312999 0.252983 0.000396
0.322451 0.252427 0.003596
0.336345 0.249497 0.001394
0.342741 0.247262 0.005125
0.348014 0.254132 -0.000060
0.358864 0.249491 0.002797
0.370246 0.250363 -0.001253
0.373603 0.251342 -0.004453
0.380117 0.250021 0.000615
0.390701 0.249137 -0.003444
0.399220 0.249690 0.000584
0.409482 0.246104 0.003130
0.412443 0.251033 -0.000901
0.426967 0.251104 -0.000379
0.432706 0.246668 -0.000180
0.440205 0.248114 -0.002234
0.450020 0.249156 0.001742
